<svg xmlns="http://www.w3.org/2000/svg" xmlns:xlink="http://www.w3.org/1999/xlink" version="1.1" x="0px" y="0px" viewBox="0 0 1000 1000" enable-background="new 0 0 1000 1000" xml:space="preserve" width="100%" height="100%" ><rect id="svgEditorBackground" x="0" y="0" width="1000" height="1000" style="fill: none; stroke: none;"/>
<metadata> Svg Vector Icons : http://www.onlinewebfonts.com/icon </metadata>
<g><g transform="translate(0.000000,511.000000) scale(0.100000,-0.100000)"><path d="M146.3,4961c-27.200000000000003,-27.199999999999818,-46.3,-73.5,-46.3,-103.5c0,-32.69999999999982,876.6,-928.3000000000002,2346.6,-2398.3l2349.2000000000003,-2349.2l-2349.2000000000003,-2349.3c-1606.1999999999998,-1606.1,-2346.6,-2365.5999999999995,-2346.6,-2403.7c0,-68.10000000000036,81.69999999999999,-147,152.4,-147c32.70000000000002,0,928.3000000000001,876.5999999999999,2398.3,2346.6l2349.2999999999997,2349.2000000000003l2349.3,-2349.3c1606.0999999999995,-1606.1,2365.5999999999995,-2346.5,2403.7,-2346.5c68.10000000000036,0,147,81.69999999999982,147,152.39999999999964c0,32.69999999999982,-876.6000000000004,928.3000000000002,-2346.6000000000004,2398.3l-2349.2,2349.3l2349.3,2349.3c1606,1606.1,2346.5,2365.5999999999995,2346.5,2403.7c0,68.10000000000036,-81.70000000000073,147,-152.39999999999964,147c-32.70000000000073,0,-928.2999999999993,-876.6000000000004,-2398.3,-2346.6l-2349.3,-2349.2000000000003l-2349.3,2349.2000000000003c-1606.1,1606.2000000000003,-2365.6,2346.6,-2403.7,2346.6c-32.69999999999999,0,-76.19999999999999,-21.800000000000182,-100.69999999999999,-49Z" fill="red"/></g></g>
</svg>